<?xml version="1.0" encoding="UTF-8"?>
<!-- Generator: visioncortex VTracer 0.6.3 -->
<svg version="1.1" xmlns="http://www.w3.org/2000/svg" width="235" height="235">
<path d="M0 0 C0.63 0.28 1.26 0.57 1.9 0.86 C30.53 13.91 52.76 37.29 64.14 66.61 C74.27 94.92 74.64 127.41 62 155 C61.72 155.63 61.43 156.26 61.14 156.9 C48.09 185.53 24.71 207.76 -4.61 219.14 C-32.92 229.27 -65.41 229.64 -93 217 C-93.94 216.57 -93.94 216.57 -94.9 216.14 C-123.53 203.09 -145.76 179.71 -157.14 150.39 C-167.27 122.08 -167.64 89.59 -155 62 C-154.72 61.37 -154.43 60.74 -154.14 60.1 C-141.09 31.47 -117.71 9.24 -88.39 -2.14 C-60.08 -12.27 -27.59 -12.64 0 0 Z " fill="#FEFEFE" transform="translate(164,9)"/>
<path d="M0 0 C4.76 3.57 8.86 8.38 10.75 14.06 C10.82 16.29 10.83 18.52 10.81 20.75 C10.8 21.93 10.79 23.11 10.79 24.32 C10.77 25.23 10.76 26.13 10.75 27.06 C11.32 27.3 11.88 27.54 12.47 27.79 C15.22 29.32 17.08 31.17 19.3 33.41 C20.14 34.26 20.99 35.12 21.86 35.99 C22.73 36.88 23.6 37.77 24.5 38.69 C25.39 39.58 26.28 40.48 27.19 41.41 C29.38 43.62 31.57 45.84 33.75 48.06 C34.34 47.76 34.94 47.45 35.55 47.13 C41.95 44.02 48.97 42.68 55.89 44.68 C61.43 47.07 64.7 50.93 67.75 56.06 C70.11 63.15 69.06 69.52 65.92 76.15 C64.72 78.12 63.4 79.47 61.75 81.06 C61.09 82.05 60.43 83.04 59.75 84.06 C54.27 86.66 47.58 87.32 41.76 85.41 C36.18 82.52 32.11 77.85 29.38 72.25 C27.94 64.92 28.2 59.7 31.75 53.06 C31.47 48.56 29.71 46.53 26.57 43.42 C25.3 42.16 25.3 42.16 24.01 40.87 C23.12 40 22.23 39.14 21.31 38.25 C20.43 37.37 19.54 36.48 18.63 35.57 C14.8 31.05 14.8 31.05 9.75 29.06 C8.81 30.51 7.87 31.96 6.97 33.43 C5.65 35.2 4.31 36.18 2.5 37.44 C-0.39 39.68 -0.39 39.68 -0.63 42.15 C-0.66 44.62 -0.66 44.62 -0.25 48.06 C0.62 48.01 0.62 48.01 1.51 47.96 C6.74 47.78 10.32 47.98 14.75 51.06 C19.99 56.27 24.03 60.67 24.06 68.31 C23.92 74.28 23.27 79.27 19.17 83.82 C13.15 89.26 7.75 90.59 -0.3 90.44 C-4.69 89.88 -7.26 88.26 -10.25 85.06 C-14.54 79.49 -16.81 74.58 -16.63 67.54 C-15.71 61.55 -12.73 56.01 -8.19 52 C-5.72 50.37 -4.15 49.4 -1.25 49.06 C-1.58 46.42 -1.91 43.78 -2.25 41.06 C-3.23 41.09 -4.2 41.11 -5.21 41.13 C-6.48 41.15 -7.75 41.17 -9.06 41.19 C-10.96 41.22 -10.96 41.22 -12.89 41.26 C-16.25 41.06 -16.25 41.06 -19.25 39.06 C-21.9 39.37 -21.9 39.37 -24.25 40.06 C-24.17 39.24 -24.08 38.41 -24 37.56 C-24.24 34.14 -24.58 33.27 -26.25 30.5 C-29.22 24.92 -29.23 19.21 -28.25 13.06 C-25.93 7.3 -21.96 2.88 -16.53 -0.13 C-11.03 -2.08 -5.52 -1.59 0 0 Z " fill="#FB4338" transform="translate(106.25,47.9375)"/>
<path d="M0 0 C0 3 0 3 -2.06 5.88 C-4.23 8.75 -4.23 8.75 -4 11.56 C-2.78 14.53 -1.06 16.56 1 19 C4.22 24.15 3.68 30.16 3 36 C0.72 42.01 -3.49 46.33 -9.29 49.09 C-12.3 50.1 -14.65 50.2 -17.81 50.12 C-18.79 50.11 -19.76 50.09 -20.77 50.07 C-21.87 50.04 -21.87 50.04 -23 50 C-23.33 51.65 -23.66 53.3 -24 55 C-23.01 55.04 -22.02 55.08 -21 55.12 C-14.67 56.05 -10.45 60.25 -6.5 65 C-3.76 70.55 -4.11 77.03 -5 83 C-7.48 89 -11.33 92.98 -17 96 C-22.77 97.92 -28.88 98.02 -34.38 95.38 C-39.6 90.65 -43.49 86.17 -44.37 78.95 C-44.55 70.38 -43.31 65.72 -37.58 59.44 C-34 56.05 -30.83 55.29 -26 55 C-25.34 53.02 -24.68 51.04 -24 49 C-24.7 48.84 -25.4 48.67 -26.12 48.5 C-31.05 45.93 -33.69 41.32 -36.38 36.56 C-38.16 29.25 -37.11 23.82 -33.5 17.23 C-30.59 12.9 -26.82 10.01 -22 8 C-19.6 7.77 -19.6 7.77 -17.06 7.81 C-16.23 7.82 -15.39 7.83 -14.54 7.83 C-12 8 -12 8 -7 9 C-4.69 6.03 -2.38 3.06 0 0 Z " fill="#30D449" transform="translate(81,88)"/>
<path d="M0 0 C3.09 2.53 3.91 5.22 5 9 C5.99 8.67 6.98 8.34 8 8 C14.39 7.07 19.01 7.47 24.44 11.12 C29.59 15.17 33.41 19.37 34.27 26.13 C34.6 33.93 32.52 40.04 27.29 45.93 C24.08 48.87 21.46 50.78 17 51 C15.74 51.12 14.48 51.25 13.19 51.38 C7.52 51.29 3.47 48.34 -0.54 44.54 C-5.42 39.13 -6.48 33.59 -6.32 26.53 C-5.62 20.96 -3.19 17.13 0.81 13.31 C3.29 11.24 3.29 11.24 2.94 8.56 C2.63 7.72 2.32 6.87 2 6 C1.65 4.91 1.3 3.81 0.94 2.69 C0.63 1.8 0.32 0.91 0 0 Z " fill="#0881FA" transform="translate(167,132)"/>
<path d="M0 0 C1.5 0.01 1.5 0.01 3.04 0.03 C3.81 0.04 4.58 0.05 5.38 0.06 C5.38 0.72 5.38 1.38 5.38 2.06 C6.21 2.19 6.21 2.19 7.06 2.31 C11.22 3.66 13.69 6.1 16.19 9.62 C18.36 15.92 18.5 22.38 15.69 28.5 C13.17 32.86 10.18 35.46 5.38 37.06 C-5.3 38.2 -5.3 38.2 -9.93 35.93 C-14.57 32.12 -17.32 28.07 -17.94 22 C-18.12 16.98 -18.14 13.16 -16 8.56 C-11.03 3.33 -7.45 -0.09 0 0 Z " fill="#0881FA" transform="translate(56.625,144.9375)"/>
<path d="M0 0 C5.13 3.09 9.18 6.02 10.83 11.98 C11.62 18.84 10.88 24.29 6.83 29.98 C2.36 34.33 -1.82 36.06 -7.98 36.48 C-12.84 36.35 -15.81 35.11 -19.47 31.94 C-23.79 26.95 -25.55 21.34 -25.23 14.79 C-24.44 9.91 -22.89 6.3 -19.17 2.98 C-13.36 -0.75 -6.6 -3.11 0 0 Z " fill="#FB4339" transform="translate(117.171875,100.0234375)"/>
<path d="M0 0 C8.41 7.61 8.41 7.61 8.83 12.98 C8.99 23.78 8.99 23.78 5.62 28.38 C1.36 32.45 -2.32 35.22 -8.31 35.53 C-16.62 34.94 -16.62 34.94 -20.44 32.06 C-21.08 31.18 -21.72 30.29 -22.38 29.38 C-22.95 28.67 -23.53 27.97 -24.12 27.25 C-27.46 22.25 -27.01 16.13 -26.38 10.38 C-24.55 5.3 -21.33 1.39 -16.46 -1 C-10.79 -2.7 -5.32 -2.56 0 0 Z " fill="#FCFCFC" transform="translate(106.375,51.625)"/>
<path d="M0 0 C4.76 3.57 8.86 8.38 10.75 14.06 C10.82 16.29 10.83 18.52 10.81 20.75 C10.8 21.93 10.79 23.11 10.79 24.32 C10.77 25.23 10.76 26.13 10.75 27.06 C11.32 27.3 11.88 27.54 12.47 27.79 C15.22 29.32 17.08 31.17 19.3 33.41 C20.14 34.26 20.99 35.12 21.86 35.99 C22.73 36.88 23.6 37.77 24.5 38.69 C25.39 39.58 26.28 40.48 27.19 41.41 C29.38 43.62 31.57 45.84 33.75 48.06 C34.34 47.76 34.94 47.45 35.55 47.13 C41.95 44.02 48.97 42.68 55.89 44.68 C61.43 47.07 64.7 50.93 67.75 56.06 C70.11 63.15 69.06 69.52 65.92 76.15 C64.72 78.12 63.4 79.47 61.75 81.06 C61.09 82.05 60.43 83.04 59.75 84.06 C54.27 86.66 47.58 87.32 41.76 85.41 C36.18 82.52 32.11 77.85 29.38 72.25 C27.94 64.92 28.2 59.7 31.75 53.06 C31.47 48.56 29.71 46.53 26.57 43.42 C25.3 42.16 25.3 42.16 24.01 40.87 C23.12 40 22.23 39.14 21.31 38.25 C20.43 37.37 19.54 36.48 18.63 35.57 C14.8 31.05 14.8 31.05 9.75 29.06 C8.81 30.51 7.87 31.96 6.97 33.43 C5.65 35.2 4.31 36.18 2.5 37.44 C-0.39 39.68 -0.39 39.68 -0.63 42.15 C-0.66 44.62 -0.66 44.62 -0.25 48.06 C0.62 48.01 0.62 48.01 1.51 47.96 C6.74 47.78 10.32 47.98 14.75 51.06 C19.99 56.27 24.03 60.67 24.06 68.31 C23.92 74.28 23.27 79.27 19.17 83.82 C13.15 89.26 7.75 90.59 -0.3 90.44 C-4.69 89.88 -7.26 88.26 -10.25 85.06 C-14.54 79.49 -16.81 74.58 -16.63 67.54 C-15.71 61.55 -12.73 56.01 -8.19 52 C-5.72 50.37 -4.15 49.4 -1.25 49.06 C-1.58 46.42 -1.91 43.78 -2.25 41.06 C-3.23 41.09 -4.2 41.11 -5.21 41.13 C-6.48 41.15 -7.75 41.17 -9.06 41.19 C-10.96 41.22 -10.96 41.22 -12.89 41.26 C-16.25 41.06 -16.25 41.06 -19.25 39.06 C-21.9 39.37 -21.9 39.37 -24.25 40.06 C-24.17 39.24 -24.08 38.41 -24 37.56 C-24.24 34.14 -24.58 33.27 -26.25 30.5 C-29.22 24.92 -29.23 19.21 -28.25 13.06 C-25.93 7.3 -21.96 2.88 -16.53 -0.13 C-11.03 -2.08 -5.52 -1.59 0 0 Z M-22.79 7.69 C-27.03 13.36 -27.13 19.2 -26.25 26.06 C-24.61 30.8 -22.13 33.89 -18.25 37.06 C-12.81 39.36 -7.91 39.49 -2.25 38.06 C3.03 35.27 6.84 31.8 8.75 26.06 C9.24 20.55 9.52 15.69 7.12 10.62 C1.7 4.6 1.7 4.6 -5.61 1.82 C-12.96 1.63 -17.64 2.25 -22.79 7.69 Z M32.53 54.8 C29.75 60.42 30.03 66.37 31.81 72.19 C33.65 76.63 36.78 79.45 40.75 82.06 C45.76 83.73 51.05 84.13 56.04 82.16 C61.07 79.21 64.31 75.67 66.5 70.19 C67.33 63.15 67.15 57.84 62.75 52.06 C58.48 47.9 54.23 45.68 48.25 45.25 C41.38 45.66 36.43 49.24 32.53 54.8 Z M-11.25 58.19 C-14.43 63.39 -14.94 68.81 -13.69 74.71 C-11.86 80.15 -9.35 83.9 -4.52 87.06 C0.35 89.21 5.02 88.95 10.02 87.32 C15.26 84.96 18.15 81.87 21 76.88 C22.46 71.4 22.45 66.11 20.62 60.75 C17.69 56.55 13.72 52.67 8.75 51.06 C1.08 50.28 -6.17 52 -11.25 58.19 Z " fill="#474747" transform="translate(106.25,47.9375)"/>
<path d="M0 0 C0 3 0 3 -2.06 5.88 C-4.23 8.75 -4.23 8.75 -4 11.56 C-2.78 14.53 -1.06 16.56 1 19 C4.22 24.15 3.68 30.16 3 36 C0.72 42.01 -3.49 46.33 -9.29 49.09 C-12.3 50.1 -14.65 50.2 -17.81 50.12 C-18.79 50.11 -19.76 50.09 -20.77 50.07 C-21.87 50.04 -21.87 50.04 -23 50 C-23.33 51.65 -23.66 53.3 -24 55 C-23.01 55.04 -22.02 55.08 -21 55.12 C-14.67 56.05 -10.45 60.25 -6.5 65 C-3.76 70.55 -4.11 77.03 -5 83 C-7.48 89 -11.33 92.98 -17 96 C-22.77 97.92 -28.88 98.02 -34.38 95.38 C-39.6 90.65 -43.49 86.17 -44.37 78.95 C-44.55 70.38 -43.31 65.72 -37.58 59.44 C-34 56.05 -30.83 55.29 -26 55 C-25.34 53.02 -24.68 51.04 -24 49 C-24.7 48.84 -25.4 48.67 -26.12 48.5 C-31.05 45.93 -33.69 41.32 -36.38 36.56 C-38.16 29.25 -37.11 23.82 -33.5 17.23 C-30.59 12.9 -26.82 10.01 -22 8 C-19.6 7.77 -19.6 7.77 -17.06 7.81 C-16.23 7.82 -15.39 7.83 -14.54 7.83 C-12 8 -12 8 -7 9 C-4.69 6.03 -2.38 3.06 0 0 Z M-31 17 C-34.15 21.57 -35.16 26.49 -35 32 C-33.66 38.16 -30.66 42.73 -25.88 46.81 C-20.91 48.86 -15.84 48.9 -10.71 47.27 C-5.49 44.87 -2.6 41.81 0.25 36.81 C1.75 31.2 2.1 25.37 -0.69 20.12 C-4.03 15.61 -7.51 12.46 -13 11 C-20.73 9.88 -25.57 11.32 -31 17 Z M-38.81 64.12 C-43.07 69.72 -42.58 75.14 -42 82 C-40.66 86.39 -37.66 90.32 -34.03 93.12 C-28.77 95.4 -22.14 94.97 -16.74 93.3 C-11.57 90.65 -8.8 86.39 -7 81 C-6.23 74.23 -6.57 69.19 -10.63 63.59 C-12.28 61.68 -13.76 60.19 -16 59 C-16.99 59 -17.98 59 -19 59 C-19 58.34 -19 57.68 -19 57 C-27.85 56.43 -32.82 57.2 -38.81 64.12 Z " fill="#1F2E2C" transform="translate(81,88)"/>
<path d="M0 0 C3.09 2.53 3.91 5.22 5 9 C5.99 8.67 6.98 8.34 8 8 C14.39 7.07 19.01 7.47 24.44 11.12 C29.59 15.17 33.41 19.37 34.27 26.13 C34.6 33.93 32.52 40.04 27.29 45.93 C24.08 48.87 21.46 50.78 17 51 C15.74 51.12 14.48 51.25 13.19 51.38 C7.52 51.29 3.47 48.34 -0.54 44.54 C-5.42 39.13 -6.48 33.59 -6.32 26.53 C-5.62 20.96 -3.19 17.13 0.81 13.31 C3.29 11.24 3.29 11.24 2.94 8.56 C2.63 7.72 2.32 6.87 2 6 C1.65 4.91 1.3 3.81 0.94 2.69 C0.63 1.8 0.32 0.91 0 0 Z M0.69 16.38 C-3.29 21.32 -4.45 25.08 -4.32 31.4 C-3.69 36.54 -1.28 40.32 1.81 44.38 C6.2 47.64 11.53 48.54 16.95 48.38 C21.62 47.52 25.53 44.98 28.36 41.18 C29.33 39.5 30.17 37.75 31 36 C31.33 35.34 31.66 34.68 32 34 C32.82 27.51 31.78 22.37 28 17 C25.56 14.62 25.56 14.62 23 13 C22.01 12.34 21.02 11.68 20 11 C12.82 10.05 5.66 10.76 0.69 16.38 Z " fill="#35475A" transform="translate(167,132)"/>
<path d="M0 0 C4.2 3.18 7.2 7.44 8.86 12.41 C9.64 19.51 8.61 25.28 4.86 31.41 C3.88 32.43 2.88 33.43 1.86 34.41 C1.2 35.4 0.54 36.39 -0.14 37.41 C-5.62 40.01 -12.32 40.67 -18.13 38.76 C-23.71 35.87 -27.78 31.2 -30.52 25.6 C-32.26 16.71 -31.18 10.96 -26.14 3.41 C-25.48 3.41 -24.82 3.41 -24.14 3.41 C-23.96 2.79 -23.77 2.17 -23.58 1.54 C-21.82 -1.07 -20.21 -1.58 -17.2 -2.27 C-10.9 -3.25 -5.67 -3.16 0 0 Z M-27.36 8.15 C-30.14 13.77 -29.86 19.72 -28.08 25.54 C-26.25 29.98 -23.11 32.8 -19.14 35.41 C-14.13 37.08 -8.84 37.48 -3.85 35.5 C1.18 32.56 4.41 29.02 6.61 23.54 C7.44 16.5 7.26 11.19 2.86 5.41 C-1.41 1.25 -5.66 -0.97 -11.64 -1.4 C-18.51 -1 -23.46 2.59 -27.36 8.15 Z " fill="#301B1A" transform="translate(166.140625,94.58984375)"/>
<path d="M0 0 C11.97 -0.57 11.97 -0.57 16 3 C20.82 8.02 24.28 12.04 24.31 19.25 C24.17 25.21 23.52 30.21 19.42 34.75 C13.4 40.2 8 41.53 -0.05 41.38 C-4.44 40.81 -7.01 39.2 -10 36 C-14.3 30.43 -16.54 25.52 -16.39 18.48 C-15.5 12.79 -12.42 7.99 -9.12 3.38 C-6.07 1.4 -3.55 1.73 0 2 C0 1.34 0 0.68 0 0 Z M-11 9.12 C-14.18 14.32 -14.69 19.75 -13.44 25.65 C-11.61 31.09 -9.1 34.84 -4.27 38 C0.6 40.14 5.27 39.89 10.27 38.26 C15.51 35.89 18.4 32.8 21.25 27.81 C22.71 22.34 22.7 17.05 20.88 11.69 C17.94 7.48 13.97 3.61 9 2 C1.33 1.22 -5.92 2.93 -11 9.12 Z " fill="#362120" transform="translate(106,97)"/>
<path d="M0 0 C3.37 1.12 3.62 1.45 5.19 4.44 C7.81 10.11 8.09 15.57 6.2 21.53 C4.58 25.38 3.01 28.1 0 31 C-0.99 32.49 -0.99 32.49 -2 34 C-7.04 36.4 -12.51 36.64 -18 36 C-18.99 35.34 -19.98 34.68 -21 34 C-19.35 34 -17.7 34 -16 34 C-16 33.67 -16 33.34 -16 33 C-15.35 32.9 -14.7 32.8 -14.02 32.7 C-7.38 31.57 -2.33 30.21 1.81 24.5 C4.05 19.8 4.72 15.2 4 10 C3.1 7.77 2.07 5.75 0.88 3.66 C0 2 0 2 0 0 Z " fill="#271B1B" transform="translate(168,98)"/>
<path d="M0 0 C0 3 0 3 -2.06 5.88 C-4.25 8.76 -4.25 8.76 -3.94 11.62 C-2.95 14.14 -1.75 15.95 0 18 C-0.66 18.66 -1.32 19.32 -2 20 C-2.52 19.24 -3.03 18.47 -3.56 17.69 C-7.08 13.81 -10.39 12.34 -15.46 11.68 C-21.31 11.42 -24.52 12.23 -29 16 C-29.66 15.34 -30.32 14.68 -31 14 C-26.35 10.12 -23.23 7.71 -17.06 7.81 C-16.23 7.82 -15.39 7.83 -14.54 7.83 C-12 8 -12 8 -7 9 C-4.69 6.03 -2.38 3.06 0 0 Z " fill="#314935" transform="translate(81,88)"/>
<path d="M0 0 C0.99 0.33 1.98 0.66 3 1 C2.39 1.69 2.39 1.69 1.76 2.39 C1.22 3 0.68 3.62 0.12 4.25 C-0.41 4.85 -0.94 5.46 -1.49 6.08 C-5.46 11.14 -5.75 15.73 -5 22 C-2.77 29.31 1.8 32.87 8 37 C4.18 37 2.03 36.86 -0.95 34.36 C-6.54 28.2 -8.5 22.83 -8.32 14.53 C-7.57 8.57 -4.53 3.88 0 0 Z " fill="#181F27" transform="translate(169,144)"/>
<path d="M0 0 C0.66 0.33 1.32 0.66 2 1 C2 1.66 2 2.32 2 3 C9.14 4.99 14.64 4.93 22 4 C22 7.63 22 11.26 22 15 C24.97 15 27.94 15 31 15 C31 15.33 31 15.66 31 16 C28.03 16 25.06 16 22 16 C22 16.66 22 17.32 22 18 C20.35 18 18.7 18 17 18 C18.32 17.34 19.64 16.68 21 16 C20.67 13.36 20.34 10.72 20 8 C19.02 8.02 18.05 8.05 17.04 8.07 C15.77 8.09 14.5 8.11 13.19 8.12 C11.29 8.16 11.29 8.16 9.36 8.2 C6 8 6 8 3 6 C0.35 6.31 0.35 6.31 -2 7 C-1.34 4.69 -0.68 2.38 0 0 Z " fill="#555454" transform="translate(84,81)"/>
<path d="M0 0 C0 0.66 0 1.32 0 2 C-1.07 2.52 -2.14 3.03 -3.25 3.56 C-7.22 5.89 -9.67 8.55 -11 13 C-11.8 19.8 -11.53 25.01 -8 31 C-8.5 32.48 -8.5 32.48 -9 34 C-14.05 26.67 -15.1 20.86 -14 12 C-11.24 5.67 -7.27 0 0 0 Z " fill="#363636" transform="translate(92,49)"/>
<path d="M0 0 C3.09 2.53 3.91 5.22 5 9 C5.99 8.67 6.98 8.34 8 8 C18.25 7.02 18.25 7.02 22.69 9.88 C23.45 10.58 24.21 11.28 25 12 C25 12.66 25 13.32 25 14 C24.36 13.67 23.71 13.35 23.05 13.01 C19.02 11.68 15.4 11.78 11.19 11.88 C10.4 11.88 9.61 11.89 8.8 11.9 C6.87 11.93 4.93 11.96 3 12 C2.86 11.08 2.71 10.16 2.57 9.21 C2 5.99 1.1 3.07 0 0 Z " fill="#384858" transform="translate(167,132)"/>
<path d="M0 0 C4.22 1.51 5.77 4.24 8 8 C9.68 13.03 9.95 18.41 8.11 23.43 C7.15 25.33 6.08 27.17 5 29 C4 26 4 26 4.94 23.88 C6.67 19.19 6.94 14.51 5.17 9.78 C4.18 7.8 3.12 5.91 2 4 C1.32 2.67 0.66 1.34 0 0 Z " fill="#1A2027" transform="translate(192,145)"/>
<path d="M0 0 C4.28 1.53 6.6 3.14 9 7 C8.34 7.66 7.68 8.32 7 9 C6.22 8.36 5.43 7.72 4.62 7.06 C0.26 3.63 -3.04 3.71 -8.47 3.38 C-11 3 -11 3 -13 1 C-9.07 -0.96 -4.29 -0.34 0 0 Z " fill="#3F3F3F" transform="translate(103,47)"/>
<path d="M0 0 C0.66 0 1.32 0 2 0 C0.93 2.21 -0.15 4.21 -1.56 6.23 C-3.3 9.58 -3.34 11.81 -3.25 15.56 C-3.23 16.68 -3.22 17.79 -3.2 18.94 C-3.04 21.46 -2.73 23.6 -2 26 C-2.66 26.33 -3.32 26.66 -4 27 C-6.72 21.12 -6.78 15.37 -6 9 C-4.55 5.54 -2.65 2.65 0 0 Z " fill="#0C1826" transform="translate(43,148)"/>
<path d="M0 0 C3.41 0.25 4.22 1.24 6.62 3.81 C9.99 8.32 11.28 10.95 11.25 16.62 C11.26 17.59 11.26 18.55 11.27 19.54 C11 22 11 22 9 24 C8.96 23.2 8.93 22.41 8.89 21.59 C8.47 13.34 8.47 13.34 5 6 C3.36 4.63 1.7 3.29 0 2 C0 1.34 0 0.68 0 0 Z " fill="#241413" transform="translate(119,100)"/>
<path d="M0 0 C1.75 -0.05 3.5 -0.09 5.25 -0.12 C6.22 -0.15 7.2 -0.17 8.2 -0.2 C11.02 0 12.61 0.55 15 2 C13.12 3.06 13.12 3.06 11 4 C10.34 3.67 9.68 3.34 9 3 C4.53 2.7 1.32 2.64 -2.75 4.56 C-6 6 -6 6 -8.44 5.69 C-8.95 5.46 -9.47 5.23 -10 5 C-8.94 3.5 -8.94 3.5 -7 2 C-3.31 1.81 -3.31 1.81 0 2 C0 1.34 0 0.68 0 0 Z " fill="#512825" transform="translate(106,97)"/>
<path d="M0 0 C-0.33 0.99 -0.66 1.98 -1 3 C-6 5.44 -11.54 5.64 -17 5 C-17.99 4.34 -18.98 3.68 -20 3 C-18.35 3 -16.7 3 -15 3 C-15 2.67 -15 2.34 -15 2 C-13.44 1.66 -11.88 1.33 -10.31 1 C-9.44 0.81 -8.57 0.63 -7.68 0.44 C-5.06 0.01 -2.64 -0.08 0 0 Z " fill="#694F4E" transform="translate(167,129)"/>
<path d="M0 0 C0.89 0.02 1.78 0.04 2.7 0.05 C3.72 0.09 3.72 0.09 4.75 0.12 C4.75 0.45 4.75 0.78 4.75 1.12 C-0.7 1.62 -0.7 1.62 -6.25 2.12 C-6.25 2.78 -6.25 3.44 -6.25 4.12 C-8.21 5.51 -10.21 6.85 -12.25 8.12 C-12.91 7.47 -13.57 6.81 -14.25 6.12 C-9.43 2.11 -6.38 -0.17 0 0 Z " fill="#515F53" transform="translate(64.25,95.875)"/>
<path d="M0 0 C0.33 0 0.66 0 1 0 C1.11 0.65 1.22 1.3 1.33 1.98 C2.28 7.18 3.57 11.27 6 16 C5.67 16.99 5.34 17.98 5 19 C1.58 14.03 -0.14 10.86 -0.06 4.81 C-0.05 3.91 -0.04 3.01 -0.04 2.08 C-0.02 1.39 -0.01 0.71 0 0 Z " fill="#171717" transform="translate(78,64)"/>
<path d="M0 0 C3.94 3.77 3.94 3.77 4.1 7.16 C4.09 7.98 4.07 8.79 4.06 9.62 C4.05 10.44 4.04 11.26 4.04 12.1 C4.02 12.73 4.01 13.35 4 14 C3.34 13.67 2.68 13.34 2 13 C1.37 10.06 1.37 10.06 0.88 6.44 C0.71 5.24 0.54 4.04 0.37 2.81 C0.25 1.88 0.12 0.95 0 0 Z " fill="#0F1811" transform="translate(80,106)"/>
<path d="M0 0 C1.5 0.01 1.5 0.01 3.04 0.03 C3.81 0.04 4.58 0.05 5.38 0.06 C4.39 1.55 4.39 1.55 3.38 3.06 C1.28 3.43 1.28 3.43 -1.12 3.38 C-1.92 3.37 -2.71 3.37 -3.53 3.36 C-5.62 3.06 -5.62 3.06 -7.62 1.06 C-4.98 -0.26 -2.95 -0.03 0 0 Z " fill="#7D7D7D" transform="translate(97.625,46.9375)"/>
<path d="M0 0 C-1.32 0.33 -2.64 0.66 -4 1 C-4 1.66 -4 2.32 -4 3 C-5.98 3.99 -7.96 4.98 -10 6 C-10 5.01 -10 4.02 -10 3 C-6.63 0.4 -4.23 -0.36 0 0 Z " fill="#454B51" transform="translate(55,143)"/>
<path d="M0 0 C-3.44 2.15 -5.77 2.1 -9.75 1.62 C-10.73 1.51 -11.72 1.4 -12.73 1.29 C-13.48 1.19 -14.23 1.1 -15 1 C-15 0.67 -15 0.34 -15 0 C-13.25 -0.2 -11.5 -0.38 -9.75 -0.56 C-8.78 -0.67 -7.8 -0.77 -6.8 -0.88 C-4.24 -0.99 -2.42 -0.78 0 0 Z " fill="#134476" transform="translate(66,182)"/>
<path d="M0 0 C0.66 0.66 1.32 1.32 2 2 C-0.97 4.47 -0.97 4.47 -4 7 C-4.66 6.67 -5.32 6.34 -6 6 C-4 4 -2 2 0 0 Z " fill="#353535" transform="translate(111,80)"/>
<path d="M0 0 C0.66 0.33 1.32 0.66 2 1 C-0.31 3.31 -2.62 5.62 -5 8 C-5.66 7.67 -6.32 7.34 -7 7 C-4.67 4.67 -2.33 2.33 0 0 Z " fill="#DDDDDD" transform="translate(89,51)"/>
<path d="M0 0 C0 0.66 0 1.32 0 2 C-1.98 2.99 -3.96 3.98 -6 5 C-6.66 4.34 -7.32 3.68 -8 3 C-4.94 0.38 -4.27 0 0 0 Z " fill="#4A4A4A" transform="translate(92,49)"/>
</svg>
